<svg fill="#5F6F5A" height="200px" width="200px" version="1.1" id="Layer_1" xmlns="http://www.w3.org/2000/svg" xmlns:xlink="http://www.w3.org/1999/xlink" viewBox="0 0 512.001 512.001" xml:space="preserve" stroke="#5F6F5A">
<g id="SVGRepo_bgCarrier" stroke-width="0"></g>
<g id="SVGRepo_tracerCarrier" stroke-linecap="round" stroke-linejoin="round"></g>
<g id="SVGRepo_iconCarrier">
<g>
<g>
<path d="M256.001,0C150.726,0,65.384,85.342,65.384,190.616c0,102.66,134.773,266.086,177.67,315.503 c3.253,3.748,7.99,5.887,12.953,5.882c4.963-0.007,9.68-2.162,12.928-5.915c42.883-49.551,177.682-213.422,177.682-315.469 C446.616,85.342,361.274,0,256.001,0z M256.001,314.803c-68.586,0-124.187-55.601-124.187-124.187s55.6-124.187,124.187-124.187 s124.187,55.601,124.187,124.187S324.587,314.803,256.001,314.803z"></path> </g> </g> <g> <g> <path d="M345.52,159.794c-0.844-2.604-2.973-4.589-5.631-5.25l-49.921-12.415l-27.233-43.641c-1.45-2.324-3.996-3.736-6.735-3.736 c-2.739,0-5.285,1.412-6.735,3.736l-27.233,43.641l-49.921,12.415c-2.658,0.661-4.788,2.645-5.633,5.25s-0.29,5.462,1.471,7.559 l33.089,39.387l-3.62,51.314c-0.193,2.733,1.036,5.371,3.253,6.981c2.216,1.61,5.105,1.964,7.644,0.937l47.683-19.299 l47.683,19.299c2.539,1.028,5.429,0.673,7.644-0.937c2.216-1.61,3.446-4.248,3.253-6.981l-3.62-51.314l33.089-39.387 C345.81,165.256,346.367,162.398,345.52,159.794z"></path>
</g>
</g>
</g>
</svg>