<svg version="1.1" id="Uploaded to svgrepo.com" xmlns="http://www.w3.org/2000/svg" xmlns:xlink="http://www.w3.org/1999/xlink" width="128px" height="128px" viewBox="0 0 32 32" xml:space="preserve" fill="#5F6F5A">
<g id="SVGRepo_bgCarrier" stroke-width="0"></g>
<g id="SVGRepo_tracerCarrier" stroke-linecap="round" stroke-linejoin="round"></g>
<g id="SVGRepo_iconCarrier">
<style type="text/css"> .stone_een{fill:#5F6F5A;} </style>
<path class="stone_een" d="M28,29H4c-1.657,0-3-1.343-3-3v-2c0-0.552,0.448-1,1-1h28c0.552,0,1,0.448,1,1v2 C31,27.657,29.657,29,28,29z M30,15H2c-0.552,0-1,0.448-1,1l0,0c0,0.552,0.448,1,1,1h28c0.552,0,1-0.448,1-1l0,0 C31,15.448,30.552,15,30,15z M31,12v1c0,0.552-0.448,1-1,1H2c-0.552,0-1-0.448-1-1v-1c0-4.971,4.029-9,9-9h12 C26.971,3,31,7.029,31,12z M11,6c0-0.552-0.448-1-1-1S9,5.448,9,6c0,0.552,0.448,1,1,1S11,6.552,11,6z M14,8c0-0.552-0.448-1-1-1 s-1,0.448-1,1c0,0.552,0.448,1,1,1S14,8.552,14,8z M17,6c0-0.552-0.448-1-1-1s-1,0.448-1,1c0,0.552,0.448,1,1,1S17,6.552,17,6z M20,8c0-0.552-0.448-1-1-1s-1,0.448-1,1c0,0.552,0.448,1,1,1S20,8.552,20,8z M23,6c0-0.552-0.448-1-1-1s-1,0.448-1,1 c0,0.552,0.448,1,1,1S23,6.552,23,6z M16.37,20.373L25.694,18H6.296l9.334,2.373C15.873,20.434,16.127,20.434,16.37,20.373z M30,18 h-0.251l-13.133,3.342c-0.202,0.051-0.409,0.077-0.616,0.077s-0.414-0.026-0.616-0.077L2.237,18H2c-0.552,0-1,0.448-1,1v2 c0,0.552,0.448,1,1,1h28c0.552,0,1-0.448,1-1v-2C31,18.448,30.552,18,30,18z"></path>
</g>
</svg>